<svg width="124" height="120" viewBox="0 0 124 120" fill="none" xmlns="http://www.w3.org/2000/svg">
<g clip-path="url(#clip0_613_40)">
<path d="M106.067 96.8844C106.067 96.8844 107.302 95.4498 109.703 95.4498C109.703 95.4498 110.48 95.3263 111.449 95.7336C112.42 96.1408 113.372 95.6442 114.537 94.8481L115.773 96.6374C115.773 96.6374 114.255 98.2322 112.119 98.2322C112.119 98.2322 111.661 98.4266 110.124 97.7724C108.588 97.1182 107.318 98.7472 107.318 98.7472L106.067 96.8844Z" fill="white"/>
<path d="M109.522 100.2C109.522 100.2 109.457 99.5879 110.132 99.5879C110.595 99.5879 111.907 99.5879 111.907 99.5879C111.907 99.5879 112.31 99.601 112.31 100.126C112.31 100.557 112.31 113.897 112.31 113.897C112.31 113.897 112.362 114.377 111.831 114.377C111.297 114.377 110.001 114.377 110.001 114.377C110.001 114.377 109.522 114.338 109.522 113.897C109.522 113.455 109.522 100.2 109.522 100.2Z" fill="white"/>
<path d="M103.389 104.777C103.389 104.777 103.389 104.049 104.114 104.049C104.839 104.049 105.719 104.049 105.719 104.049C105.719 104.049 106.242 104.052 106.242 104.817C106.242 105.581 106.242 109.638 106.242 109.638C106.242 109.638 106.473 113.235 103.879 115.342C101.284 117.449 99.1145 117.165 99.1145 117.165C99.1145 117.165 98.6591 117.21 98.6591 116.708C98.6591 116.209 98.6591 115.055 98.6591 115.055C98.6591 115.055 98.6774 114.554 99.159 114.554C99.6433 114.554 101.185 114.64 102.575 112.575C102.575 112.575 103.394 111.427 103.394 109.979C103.397 108.529 103.389 104.777 103.389 104.777Z" fill="white"/>
<path d="M94.2066 97.6725C94.2066 97.6725 94.2066 97.2021 94.6489 97.2021C95.0913 97.2021 96.5545 97.2021 96.5545 97.2021C96.5545 97.2021 96.8268 97.2205 96.8268 97.7066C96.8268 98.1927 96.8268 113.784 96.8268 113.784C96.8268 113.784 96.8529 114.283 96.3294 114.283C95.8059 114.283 94.6463 114.262 94.6463 114.262C94.6463 114.262 94.1411 114.312 94.1411 113.755C94.1437 113.2 94.2066 97.6725 94.2066 97.6725Z" fill="white"/>
<path d="M83.7598 104.908C83.7598 104.908 83.7258 104.076 84.4116 104.076C85.0974 104.076 87.5867 103.97 90.0577 107.21C90.0577 107.21 91.8586 109.885 91.8586 112.241V113.747C91.8586 113.747 91.9109 114.283 91.3115 114.283C90.7121 114.283 84.1655 114.283 84.1655 114.283C84.1655 114.283 83.7205 114.317 83.7205 113.836C83.7205 113.355 83.7205 111.797 83.7205 111.797C83.7205 111.797 83.7231 111.409 84.2362 111.409C84.7492 111.409 88.4531 111.409 88.4531 111.409C88.4531 111.409 88.6128 110.079 87.4113 108.752C86.2125 107.423 83.7205 107.142 83.7205 107.142L83.7598 104.908Z" fill="white"/>
<path d="M73.2607 104.877C73.2607 104.877 73.2607 104.299 73.8366 104.299C74.4124 104.299 75.6165 104.299 75.6165 104.299C75.6165 104.299 76.1557 104.299 76.1557 104.84C76.1557 105.381 76.1557 113.792 76.1557 113.792C76.1557 113.792 76.1557 114.296 75.6532 114.296C75.1506 114.296 71.3551 114.296 71.3551 114.296C71.3551 114.296 69.2375 114.454 68.4967 113.269C68.4967 113.269 66.7927 117.43 61.7591 117.43C61.7591 117.43 61.2434 117.536 61.2434 116.971C61.2434 116.406 61.2434 115.005 61.2434 115.005C61.2434 115.005 61.212 114.551 61.6962 114.551C61.6962 114.551 63.5992 114.614 64.7117 113.5C65.8242 112.386 66.2194 111.692 66.2194 110.365C66.2194 109.039 66.2194 104.759 66.2194 104.759C66.2194 104.759 66.2273 104.278 66.6984 104.278C67.1722 104.278 68.8998 104.278 68.8998 104.278C68.8998 104.278 69.3212 104.286 69.3212 104.701C69.3212 105.116 69.3212 109.551 69.3212 109.551C69.3212 109.551 69.3239 111.374 71.2111 111.374C73.0984 111.374 72.7634 111.374 72.7634 111.374C72.7634 111.374 73.2947 111.424 73.2947 110.841C73.2974 110.258 73.2607 104.877 73.2607 104.877Z" fill="white"/>
<path d="M57.5919 104.275C57.5919 104.275 58.0813 104.286 58.0813 104.743C58.0813 105.2 58.0813 113.799 58.0813 113.799C58.0813 113.799 58.063 114.249 57.6337 114.249C57.2045 114.249 44.2762 114.249 44.2762 114.249C44.2762 114.249 43.8443 114.301 43.8443 113.815C43.8443 113.329 43.8443 111.682 43.8443 111.682C43.8443 111.682 43.8443 111.382 44.1427 111.382C44.4411 111.382 48.378 111.382 48.378 111.382C48.378 111.382 48.713 111.461 48.713 111.046C48.713 110.631 48.4487 109.23 47.0718 108.237C45.695 107.244 44.1611 106.9 43.8443 106.9V104.375C43.8443 104.375 43.826 104.034 44.1846 104.034C44.5406 104.034 47.4802 103.487 50.2312 107.207C50.2312 107.207 51.5898 108.944 52.1028 111.406H54.9272C54.9272 111.406 55.1968 111.432 55.1968 111.135C55.1968 110.838 55.1968 104.809 55.1968 104.809C55.1968 104.809 55.2099 104.265 55.7386 104.265C56.2674 104.265 57.5919 104.275 57.5919 104.275Z" fill="white"/>
<path d="M41.0461 104.704C41.0461 104.704 40.9493 104.031 40.376 104.031C39.8028 104.031 39.0489 104.031 39.0489 104.031C39.0489 104.031 38.4809 104.068 38.4809 104.811C38.4809 105.555 38.4809 111.028 38.4809 111.028C38.4809 111.028 38.4286 111.44 38.0699 111.44C37.7113 111.44 35.2377 111.44 35.2377 111.44C35.2377 111.44 32.7091 111.149 32.7091 108.823C32.7091 106.498 32.7091 104.625 32.7091 104.625C32.7091 104.625 32.7693 104 32.0862 104C31.403 104 30.3795 104 30.3795 104C30.3795 104 29.8298 104.034 29.8298 104.551C29.8298 105.066 29.8298 109.302 29.8298 109.302C29.8298 109.302 29.233 111.44 27.4688 111.44V114.278C27.4688 114.278 29.3927 114.42 31.2459 112.418C31.2459 112.418 32.5521 114.28 35.2691 114.28C37.9862 114.28 40.6168 114.252 40.6168 114.252C40.6168 114.252 41.0933 114.33 41.0933 113.773C41.0933 113.216 41.0461 104.704 41.0461 104.704Z" fill="white"/>
<path d="M25.8275 97.2915L26.9662 99.8952L20.9562 102.42C20.9562 102.42 19.9249 103.111 19.9249 104.002C19.9249 104.002 19.7914 104.201 20.5871 104.493C20.5871 104.493 25.4401 105.121 26.6756 111.464V113.873C26.6756 113.873 26.639 114.356 26.194 114.356C25.749 114.356 11.0853 114.356 11.0853 114.356C11.0853 114.356 5.92346 114.511 5.92346 109.275C5.92346 104.041 5.92346 104.864 5.92346 104.864C5.92346 104.864 5.9889 104.293 6.55953 104.293C7.13017 104.293 8.30546 104.293 8.30546 104.293C8.30546 104.293 8.85515 104.32 8.85515 104.845C8.85515 105.371 8.85515 109.327 8.85515 109.327C8.85515 109.327 8.87609 111.387 11.4832 111.387C14.0903 111.387 23.223 111.387 23.223 111.387C23.223 111.387 23.5345 111.414 23.5345 111.075C23.5345 110.736 23.8068 110.032 22.4823 108.784C21.1578 107.536 20.1526 106.913 17.5717 106.913C17.5717 106.913 17.2785 107.002 17.2785 106.671C17.2785 106.34 17.2523 104.572 17.2523 104.572C17.2523 104.572 16.9461 101.156 20.6788 99.6036L25.8275 97.2915Z" fill="white"/>
<path d="M24.7491 95.6075C24.7491 95.6075 25.1993 95.5812 25.4009 95.8991C25.605 96.217 25.4009 96.4482 25.4009 96.4482L21.1735 98.5107C21.1735 98.5107 20.6709 98.8654 20.4405 98.4398C20.2102 98.0141 20.2652 97.7041 20.6787 97.4755C21.0923 97.2469 21.0923 97.2443 21.0923 97.2443L24.7491 95.6075Z" fill="white"/>
<path d="M74.3025 120C75.2292 120 75.9804 119.246 75.9804 118.316C75.9804 117.386 75.2292 116.632 74.3025 116.632C73.3758 116.632 72.6246 117.386 72.6246 118.316C72.6246 119.246 73.3758 120 74.3025 120Z" fill="white"/>
<path d="M36.8554 119.8C37.7821 119.8 38.5333 119.046 38.5333 118.116C38.5333 117.186 37.7821 116.432 36.8554 116.432C35.9288 116.432 35.1776 117.186 35.1776 118.116C35.1776 119.046 35.9288 119.8 36.8554 119.8Z" fill="white"/>
<path d="M40.5122 119.8C41.4388 119.8 42.19 119.046 42.19 118.116C42.19 117.186 41.4388 116.432 40.5122 116.432C39.5855 116.432 38.8343 117.186 38.8343 118.116C38.8343 119.046 39.5855 119.8 40.5122 119.8Z" fill="white"/>
<path d="M30.3873 102.37C31.314 102.37 32.0652 101.616 32.0652 100.686C32.0652 99.756 31.314 99.002 30.3873 99.002C29.4607 99.002 28.7095 99.756 28.7095 100.686C28.7095 101.616 29.4607 102.37 30.3873 102.37Z" fill="white"/>
<path d="M54.9874 102.386C55.914 102.386 56.6652 101.632 56.6652 100.702C56.6652 99.7716 55.914 99.0176 54.9874 99.0176C54.0607 99.0176 53.3095 99.7716 53.3095 100.702C53.3095 101.632 54.0607 102.386 54.9874 102.386Z" fill="white"/>
<path d="M54.4665 0L54.4142 21.7284C54.4142 21.7284 67.2953 29.4502 70.5437 44.8256C70.5437 44.8256 75.8365 33.4176 88.9322 33.4176C88.9322 33.4176 96.5206 33.0287 102.096 38.3071C102.096 38.3071 108.797 43.5723 108.624 53.249C108.465 62.1663 103.172 66.8955 103.172 66.8955C103.172 66.8955 96.908 72.9884 90.3431 72.9884V88.0643C90.3431 88.0643 106.666 87.6176 116.618 73.6426C116.618 73.6426 123.5 64.8751 123.5 53.5564C123.5 41.4941 117.307 31.292 111.43 26.8281C111.43 26.8281 102.502 18.431 88.9584 18.431C75.415 18.431 69.2637 24.8865 69.2637 24.8865V12.6245C69.2637 12.6245 70.295 2.81129 54.4665 0Z" fill="white"/>
<path d="M52.896 60.8735C52.896 60.8735 54.7676 70.5081 60.3771 76.6719C60.3771 76.6719 51.9066 88.0432 34.7536 88.0432C17.6006 88.0432 0.0287803 74.7251 0.0287803 52.8312C0.0287803 52.8312 -1.27739 37.0328 14.0747 25.1281C14.0747 25.1281 21.8044 18.4336 34.6149 18.4336C47.4253 18.4336 56.6837 24.0483 63.6255 33.6671C70.5673 43.2859 69.4836 54.3918 69.4836 54.3918C69.4836 54.3918 68.5648 63.1068 77.7421 69.4834C77.7421 69.4834 83.4248 73.0357 88.9296 73.0357V88.0458C88.9296 88.0458 77.4934 88.8262 67.4707 80.747C67.4707 80.747 60.8718 75.7156 56.9192 67.2843C56.9192 67.2843 54.0949 60.1274 54.0949 54.4601C54.0949 54.4601 55.6471 45.9579 48.4488 39.0847C48.4488 39.0847 43.4361 33.3466 34.3322 33.3466C25.2282 33.3466 19.4381 40.7137 19.4381 40.7137C19.4381 40.7137 14.9909 45.5875 14.9909 53.2463C14.9909 60.9051 19.2261 66.504 22.896 69.0526C22.896 69.0526 26.9898 72.9489 34.9656 72.9489C42.9414 72.9489 47.1059 68.485 47.1059 68.485C47.1059 68.485 51.2024 65.2324 52.896 60.8735Z" fill="white"/>
</g>
<defs>
<clipPath id="clip0_613_40">
<rect width="123.5" height="120" fill="white"/>
</clipPath>
</defs>
</svg>
