<svg width="72" height="70" viewBox="0 0 72 70" fill="none" xmlns="http://www.w3.org/2000/svg">
<g clip-path="url(#clip0_7_9)">
<path d="M61.8365 56.5159C61.8365 56.5159 62.5568 55.6791 63.9562 55.6791C63.9562 55.6791 64.4094 55.607 64.9741 55.8446C65.5402 56.0821 66.0957 55.7925 66.7748 55.3281L67.4951 56.3718C67.4951 56.3718 66.61 57.3021 65.3647 57.3021C65.3647 57.3021 65.0977 57.4155 64.2019 57.0339C63.3061 56.6523 62.566 57.6025 62.566 57.6025L61.8365 56.5159Z" fill="#BE6779"/>
<path d="M63.8509 58.4501C63.8509 58.4501 63.8127 58.093 64.2064 58.093C64.4765 58.093 65.2411 58.093 65.2411 58.093C65.2411 58.093 65.4761 58.1006 65.4761 58.4072C65.4761 58.6585 65.4761 66.4397 65.4761 66.4397C65.4761 66.4397 65.5066 66.7202 65.1968 66.7202C64.8855 66.7202 64.1301 66.7202 64.1301 66.7202C64.1301 66.7202 63.8509 66.6972 63.8509 66.4397C63.8509 66.1822 63.8509 58.4501 63.8509 58.4501Z" fill="#BE6779"/>
<path d="M60.2754 61.1199C60.2754 61.1199 60.2754 60.6954 60.6981 60.6954C61.1208 60.6954 61.6335 60.6954 61.6335 60.6954C61.6335 60.6954 61.9388 60.6969 61.9388 61.1429C61.9388 61.5889 61.9388 63.9553 61.9388 63.9553C61.9388 63.9553 62.073 66.0535 60.5607 67.2826C59.0484 68.5118 57.7834 68.3463 57.7834 68.3463C57.7834 68.3463 57.5178 68.3723 57.5178 68.0796C57.5178 67.7884 57.5178 67.1156 57.5178 67.1156C57.5178 67.1156 57.5285 66.8229 57.8093 66.8229C58.0916 66.8229 58.9904 66.8734 59.8008 65.6688C59.8008 65.6688 60.2784 64.999 60.2784 64.1545C60.28 63.3085 60.2754 61.1199 60.2754 61.1199Z" fill="#BE6779"/>
<path d="M54.9221 56.9757C54.9221 56.9757 54.9221 56.7013 55.18 56.7013C55.4379 56.7013 56.2909 56.7013 56.2909 56.7013C56.2909 56.7013 56.4496 56.7121 56.4496 56.9956C56.4496 57.2791 56.4496 66.3738 56.4496 66.3738C56.4496 66.3738 56.4649 66.665 56.1597 66.665C55.8545 66.665 55.1784 66.6527 55.1784 66.6527C55.1784 66.6527 54.8839 66.6818 54.8839 66.3569C54.8854 66.0335 54.9221 56.9757 54.9221 56.9757Z" fill="#BE6779"/>
<path d="M48.8316 61.1966C48.8316 61.1966 48.8118 60.7107 49.2116 60.7107C49.6114 60.7107 51.0627 60.6494 52.5033 62.5391C52.5033 62.5391 53.5532 64.0994 53.5532 65.4741V66.3523C53.5532 66.3523 53.5837 66.665 53.2342 66.665C52.8848 66.665 49.0681 66.665 49.0681 66.665C49.0681 66.665 48.8087 66.6849 48.8087 66.4044C48.8087 66.124 48.8087 65.2151 48.8087 65.2151C48.8087 65.2151 48.8102 64.9883 49.1093 64.9883C49.4084 64.9883 51.5678 64.9883 51.5678 64.9883C51.5678 64.9883 51.6609 64.2128 50.9604 63.4388C50.2615 62.6633 48.8087 62.4993 48.8087 62.4993L48.8316 61.1966Z" fill="#BE6779"/>
<path d="M42.7108 61.1782C42.7108 61.1782 42.7107 60.841 43.0465 60.841C43.3822 60.841 44.0842 60.841 44.0842 60.841C44.0842 60.841 44.3985 60.841 44.3985 61.1567C44.3985 61.4724 44.3985 66.3784 44.3985 66.3784C44.3985 66.3784 44.3985 66.6726 44.1055 66.6726C43.8125 66.6726 41.5998 66.6726 41.5998 66.6726C41.5998 66.6726 40.3652 66.7646 39.9334 66.0734C39.9334 66.0734 38.9399 68.5011 36.0053 68.5011C36.0053 68.5011 35.7047 68.5624 35.7047 68.2329C35.7047 67.9034 35.7047 67.0865 35.7047 67.0865C35.7047 67.0865 35.6864 66.8213 35.9687 66.8213C35.9687 66.8213 37.0781 66.8581 37.7267 66.2083C38.3753 65.5584 38.6057 65.1538 38.6057 64.3798C38.6057 63.6058 38.6057 61.1092 38.6057 61.1092C38.6057 61.1092 38.6103 60.8287 38.885 60.8287C39.1612 60.8287 40.1684 60.8287 40.1684 60.8287C40.1684 60.8287 40.4141 60.8333 40.4141 61.0755C40.4141 61.3176 40.4141 63.9047 40.4141 63.9047C40.4141 63.9047 40.4156 64.9684 41.5159 64.9684C42.6161 64.9684 42.4208 64.9684 42.4208 64.9684C42.4208 64.9684 42.7306 64.9975 42.7306 64.6572C42.7321 64.317 42.7108 61.1782 42.7108 61.1782Z" fill="#D4AF37"/>
<path d="M33.5759 60.8272C33.5759 60.8272 33.8612 60.8333 33.8612 61.1C33.8612 61.3667 33.8612 66.383 33.8612 66.383C33.8612 66.383 33.8506 66.6451 33.6003 66.6451C33.35 66.6451 25.8129 66.6451 25.8129 66.6451C25.8129 66.6451 25.5611 66.6757 25.5611 66.3922C25.5611 66.1086 25.5611 65.1477 25.5611 65.1477C25.5611 65.1477 25.5611 64.973 25.7351 64.973C25.9091 64.973 28.2042 64.973 28.2042 64.973C28.2042 64.973 28.3996 65.0189 28.3996 64.7768C28.3996 64.5346 28.2454 63.7177 27.4427 63.1384C26.64 62.5591 25.7458 62.3583 25.5611 62.3583V60.8854C25.5611 60.8854 25.5504 60.6862 25.7595 60.6862C25.9671 60.6862 27.6808 60.3674 29.2847 62.5376C29.2847 62.5376 30.0767 63.5507 30.3758 64.9867H32.0224C32.0224 64.9867 32.1796 65.0021 32.1796 64.8289C32.1796 64.6557 32.1796 61.1383 32.1796 61.1383C32.1796 61.1383 32.1872 60.821 32.4954 60.821C32.8037 60.821 33.5759 60.8272 33.5759 60.8272Z" fill="#D4AF37"/>
<path d="M23.9297 61.077C23.9297 61.077 23.8733 60.6846 23.5391 60.6846C23.2049 60.6846 22.7654 60.6846 22.7654 60.6846C22.7654 60.6846 22.4342 60.7061 22.4342 61.1398C22.4342 61.5736 22.4342 64.766 22.4342 64.766C22.4342 64.766 22.4037 65.0067 22.1946 65.0067C21.9855 65.0067 20.5434 65.0067 20.5434 65.0067C20.5434 65.0067 19.0693 64.8366 19.0693 63.4802C19.0693 62.1238 19.0693 61.031 19.0693 61.031C19.0693 61.031 19.1044 60.6663 18.7061 60.6663C18.3078 60.6663 17.7111 60.6663 17.7111 60.6663C17.7111 60.6663 17.3906 60.6862 17.3906 60.9881C17.3906 61.2885 17.3906 63.7591 17.3906 63.7591C17.3906 63.7591 17.0427 65.0067 16.0142 65.0067V66.6619C16.0142 66.6619 17.1358 66.7447 18.2162 65.5768C18.2162 65.5768 18.9777 66.6635 20.5618 66.6635C22.1458 66.6635 23.6794 66.6466 23.6794 66.6466C23.6794 66.6466 23.9572 66.6926 23.9572 66.3677C23.9572 66.0427 23.9297 61.077 23.9297 61.077Z" fill="#D4AF37"/>
<path d="M15.0574 56.7534L15.7212 58.2723L12.2174 59.7451C12.2174 59.7451 11.6161 60.1482 11.6161 60.6678C11.6161 60.6678 11.5383 60.7843 12.0022 60.9544C12.0022 60.9544 14.8315 61.3207 15.5518 65.0205V66.4259C15.5518 66.4259 15.5304 66.7079 15.271 66.7079C15.0116 66.7079 6.46272 66.7079 6.46272 66.7079C6.46272 66.7079 3.45337 66.7983 3.45337 63.7438C3.45337 60.6908 3.45337 61.1705 3.45337 61.1705C3.45337 61.1705 3.49152 60.8379 3.8242 60.8379C4.15687 60.8379 4.84206 60.8379 4.84206 60.8379C4.84206 60.8379 5.16253 60.8532 5.16253 61.1598C5.16253 61.4663 5.16253 63.7744 5.16253 63.7744C5.16253 63.7744 5.17474 64.976 6.69467 64.976C8.21461 64.976 13.539 64.976 13.539 64.976C13.539 64.976 13.7206 64.9913 13.7206 64.7936C13.7206 64.5959 13.8793 64.1852 13.1071 63.4572C12.3349 62.7292 11.7489 62.3659 10.2442 62.3659C10.2442 62.3659 10.0733 62.4181 10.0733 62.2249C10.0733 62.0318 10.0581 61.0004 10.0581 61.0004C10.0581 61.0004 9.87952 59.0079 12.0556 58.1022L15.0574 56.7534Z" fill="#D4AF37"/>
<path d="M14.4287 55.771C14.4287 55.771 14.6912 55.7557 14.8087 55.9411C14.9277 56.1266 14.8087 56.2615 14.8087 56.2615L12.3441 57.4646C12.3441 57.4646 12.0511 57.6715 11.9168 57.4232C11.7825 57.1749 11.8146 56.9941 12.0557 56.8607C12.2968 56.7274 12.2968 56.7259 12.2968 56.7259L14.4287 55.771Z" fill="#D4AF37"/>
<path d="M43.318 70C43.8583 70 44.2962 69.5602 44.2962 69.0176C44.2962 68.475 43.8583 68.0352 43.318 68.0352C42.7778 68.0352 42.3398 68.475 42.3398 69.0176C42.3398 69.5602 42.7778 70 43.318 70Z" fill="#D4AF37"/>
<path d="M21.4866 69.8835C22.0269 69.8835 22.4648 69.4437 22.4648 68.9011C22.4648 68.3585 22.0269 67.9187 21.4866 67.9187C20.9464 67.9187 20.5084 68.3585 20.5084 68.9011C20.5084 69.4437 20.9464 69.8835 21.4866 69.8835Z" fill="#D4AF37"/>
<path d="M23.6184 69.8835C24.1587 69.8835 24.5966 69.4437 24.5966 68.9011C24.5966 68.3585 24.1587 67.9187 23.6184 67.9187C23.0782 67.9187 22.6403 68.3585 22.6403 68.9011C22.6403 69.4437 23.0782 69.8835 23.6184 69.8835Z" fill="#D4AF37"/>
<path d="M17.7157 59.716C18.256 59.716 18.6939 59.2762 18.6939 58.7336C18.6939 58.191 18.256 57.7512 17.7157 57.7512C17.1755 57.7512 16.7375 58.191 16.7375 58.7336C16.7375 59.2762 17.1755 59.716 17.7157 59.716Z" fill="#D4AF37"/>
<path d="M32.0574 59.7252C32.5977 59.7252 33.0356 59.2854 33.0356 58.7428C33.0356 58.2002 32.5977 57.7604 32.0574 57.7604C31.5172 57.7604 31.0792 58.2002 31.0792 58.7428C31.0792 59.2854 31.5172 59.7252 32.0574 59.7252Z" fill="#D4AF37"/>
<path d="M31.7538 0L31.7233 12.6749C31.7233 12.6749 39.2329 17.1793 41.1267 26.1483C41.1267 26.1483 44.2124 19.4936 51.8471 19.4936C51.8471 19.4936 56.2711 19.2667 59.5216 22.3458C59.5216 22.3458 63.4282 25.4172 63.3275 31.0619C63.2344 36.2637 60.1488 39.0224 60.1488 39.0224C60.1488 39.0224 56.497 42.5766 52.6697 42.5766V51.3708C52.6697 51.3708 62.186 51.1103 67.988 42.9582C67.988 42.9582 72 37.8438 72 31.2412C72 24.2049 68.3894 18.2537 64.9634 15.6497C64.9634 15.6497 59.7581 10.7514 51.8624 10.7514C43.9667 10.7514 40.3805 14.5171 40.3805 14.5171V7.36431C40.3805 7.36431 40.9817 1.63992 31.7538 0Z" fill="#D4AF37"/>
<path d="M30.8381 35.5096C30.8381 35.5096 31.9292 41.1298 35.1995 44.7253C35.1995 44.7253 30.2613 51.3586 20.2611 51.3586C10.261 51.3586 0.0167131 43.5896 0.0167131 30.8182C0.0167131 30.8182 -0.74478 21.6025 8.20543 14.6581C8.20543 14.6581 12.7118 10.753 20.1803 10.753C27.6487 10.753 33.0463 14.0282 37.0933 19.6392C41.1404 25.2501 40.5086 31.7286 40.5086 31.7286C40.5086 31.7286 39.973 36.8123 45.3233 40.532C45.3233 40.532 48.6363 42.6042 51.8455 42.6042V51.3601C51.8455 51.3601 45.1783 51.8153 39.3351 47.1024C39.3351 47.1024 35.4879 44.1674 33.1836 39.2492C33.1836 39.2492 31.537 35.0743 31.537 31.7684C31.537 31.7684 32.442 26.8088 28.2454 22.7995C28.2454 22.7995 25.323 19.4522 20.0154 19.4522C14.7079 19.4522 11.3323 23.7497 11.3323 23.7497C11.3323 23.7497 8.73955 26.5927 8.73955 31.0604C8.73955 35.528 11.2087 38.794 13.3482 40.2807C13.3482 40.2807 15.7349 42.5536 20.3847 42.5536C25.0346 42.5536 27.4625 39.9496 27.4625 39.9496C27.4625 39.9496 29.8508 38.0522 30.8381 35.5096Z" fill="#BE6779"/>
</g>
<defs>
<clipPath id="clip0_7_9">
<rect width="72" height="70" fill="white"/>
</clipPath>
</defs>
</svg>
